<svg version="1" xmlns="http://www.w3.org/2000/svg" width="1365.333" height="1365.333" viewBox="0 0 1024.000000 1024.000000"><path d="M496.7 11.6c-.1.1-6 .5-13.2.9-7.1.3-14.1.8-15.5 1-1.4.2-5.9.7-10 1-4.1.4-8.2.9-9 1-.8.2-4.4.6-8 1-3.6.4-7.4.9-8.5 1.1-1.1.2-3.1.6-4.5.8-1.4.3-4.2.8-6.3 1.1-9.1 1.3-34.4 6.9-48.2 10.6-78.4 21.5-148.7 58.9-209 111.3-9.1 7.9-40.8 39.6-47.5 47.6-2.5 2.9-5 5.8-5.5 6.4-8 8.5-28.3 36.9-41.7 58.1-8.6 13.6-23.7 43-31.1 60.5-9 21.2-20.6 55.8-23.2 69-.2.8-1 4.2-1.8 7.5-1.6 6.1-5.1 23.9-6.2 30.9-.3 2.1-.7 4.8-1 6-.5 2.5-1.1 7.1-2 15.1-.3 3.3-.8 7.4-1 9.1-2.7 20-2.7 90.7 0 104.2.2 1.2.7 5.4 1 9.2.3 3.8.8 7.8 1 8.8.2 1.1.6 4.3 1 7.2.4 2.9.9 6.2 1.1 7.4.2 1.2.7 4.3 1 7.1.4 2.7.8 5.3 1 5.6.2.4.6 2.4 1 4.5.8 5.3 7.8 35.6 9.9 42.6.9 3.2 1.6 5.9 1.5 6-.1.2.4 1.6 1 3.3.7 1.6 1.3 3.7 1.5 4.5.2.8 1.9 6 3.8 11.5 17.2 49.8 39 91.5 69.1 132.5 32.5 44.3 75.6 85.4 123.1 117.3 37 24.9 81.4 47 123 61.3 22.3 7.7 55.4 16.8 72 19.8 14.1 2.5 21.5 3.8 24.5 4.1 1.9.3 4.4.7 5.5.9 1.2.2 4.8.7 8 1.1 3.3.4 7.1.8 8.5 1.1 1.4.2 6.1.6 10.5.9 4.4.3 10.3.8 13 1.2 2.8.3 124.8.6 271.3.7l266.3.1-.4-267.5c-.2-147.1-.6-269.8-1-272.5-.3-2.8-.9-8.4-1.2-12.5-.3-4.1-.8-8.9-1-10.5-.2-1.7-.6-5-.9-7.5-.4-2.5-.9-6.5-1.2-9-1.4-10.6-5.5-31-9.9-49-3.3-13.6-14.7-47.3-20-59.5-.7-1.7-2.7-6.4-4.5-10.5-10.2-23.5-25.3-51-41.3-75-6.2-9.2-24-33.6-25.6-35-.3-.3-2.4-2.7-4.6-5.5-11.7-14.6-34.1-37.9-52-54.2-44.7-40.5-101.6-76-156-97.3-8.8-3.5-16.9-6.7-18-7.1-2.7-1.1-26.2-8.9-28.3-9.4-.9-.3-5.1-1.4-9.2-2.5s-8.6-2.3-10-2.6c-1.4-.2-3.8-.9-5.5-1.4-1.6-.5-4.1-1.1-5.5-1.4-1.4-.3-7.9-1.6-14.5-3-12.1-2.5-17.2-3.4-23.5-4.1-3.2-.4-9.3-1.4-13-2-.8-.1-5.1-.6-9.5-1s-8.8-.9-9.7-1c-4.9-1-59.3-2.6-60.1-1.9zM520 231.4c15.5 1.8 22.6 3 34.8 5.6C613 249.9 666 281.4 705 326.1c3.6 4 6.7 7.6 7 7.9.8.8 10.3 13.5 12 16 .8 1.2 2.7 3.9 4.1 5.9 7.5 10.5 19.1 32.4 25.5 47.8 4.4 10.6 10.5 28.3 9.7 28.3-.3 0-.1.6.4 1.2 1.3 1.7 6.3 23.2 7.9 33.8.3 2.5.8 5.4 1 6.5 1.3 6.8 1.9 19.8 1.9 39.5s-.4 26.6-2 37c-.2 1.4-.6 4.1-.9 6-6.8 45.3-27.1 91.4-56.9 129.5-43.3 55.4-109.5 94.1-178.2 104-2.2.4-5.1.8-6.5 1.1-15 2.5-63 2.4-73-.1-.8-.2-3.5-.7-6-1-17-2.3-42.3-9.1-60-16.2-12.1-4.8-33.5-15.1-38.1-18.4-1.5-1-3-1.9-3.3-1.9-1.5 0-27.5-18.2-32.2-22.5-.7-.5-3.1-2.6-5.5-4.5-9.8-7.7-31.3-30.2-40.2-42-8.2-10.9-12.7-17.1-12.7-17.5 0-.2-2-3.5-4.4-7.2-18.9-29.4-34.2-71.1-39.2-107.3-.2-1.9-.7-4.9-.9-6.5-2.4-14.9-2.3-51.4.1-68.5 7.4-52 24-93 54.8-135 12.2-16.6 36.4-41.1 52.6-53 1.8-1.4 4.5-3.4 5.9-4.6 10-8.1 42-26.2 57.6-32.6 15.5-6.3 40.4-13.9 53.5-16.2 1.9-.3 4.6-.8 6-1.1 1.4-.3 4.5-.8 7-1.1 2.5-.3 5.6-.7 7-.9 1.4-.2 5.7-.7 9.5-1 3.9-.4 7.1-.8 7.2-.9.5-.5 39.2.2 44.3.8z"/><path d="M470 291.1c-40.5 4.6-82.9 21.8-113 45.8-8.9 7.1-10.7 8.7-21.1 19.1-36 35.9-58.8 84.1-63.6 134.6-1.5 16.5-.8 43.3 1.7 57.4.5 3 1.2 6.8 1.4 8.5 1.3 7.7 8 29.6 12.1 39.7 5 12.2 12.8 27.4 17.5 34.4 1.7 2.3 3 4.5 3 4.8 0 .3.6 1.4 1.4 2.3.8 1 4.3 5.6 7.8 10.3 7.1 9.6 26 29.1 35.8 37 3.6 2.8 7.4 5.9 8.5 6.8 10.9 8.9 42.8 25.6 59 31 17.2 5.8 32.4 9.2 47 10.7 3.3.4 7.1.8 8.5 1.1 6.3 1 35.8.4 45-1.1 1.4-.2 4.5-.6 7-1 57.8-8.4 112.4-42 146.9-90.5 18.1-25.4 32.1-57.4 37-84.6.6-3.2 1.3-7 1.6-8.4.3-1.4.8-5.2 1.1-8.5.3-3.3.9-8.9 1.3-12.5 1.5-15.2.2-37.6-3.3-57.5-2.9-16-10.1-37.5-18.6-55-17.6-36.4-44.4-67-78.5-89.5-19.1-12.6-46.6-24.6-68-29.6-6.9-1.6-18.9-3.8-28.5-5.1-6.6-.9-41.5-1-49-.2z"/></svg>