<svg xmlns="http://www.w3.org/2000/svg" viewBox="0 0 50 50"><defs><style>.cls-1{fill:#f99400}</style></defs><path id="Path_2532" data-name="Path 2532" class="cls-1" d="M25 0a25 25 0 1 0 25 25A25.073 25.073 0 0 0 25 0zm11.5 33.5a5.472 5.472 0 0 1-2.25 2.5A8.735 8.735 0 0 1 31 37.25a17.055 17.055 0 0 0-3 .25V41h-4.25v-3.5h-2.5v3.25h-4V37.5h-4.5v-4h3.75V17h-3.75v-4.25H17v-3.5h4v3.5h2.5v-3.5h4V13a9.374 9.374 0 0 1 2.75.25 6.411 6.411 0 0 1 4.5 3 5.332 5.332 0 0 1 .75 3A5.415 5.415 0 0 1 32 24.5a7.668 7.668 0 0 1 3.5 2.25 6.141 6.141 0 0 1 1.25 3.75 3.217 3.217 0 0 1-.25 3zM30 27a13.656 13.656 0 0 0-4.5-.25h-4v6.5H26a16.5 16.5 0 0 0 3.5-.25 2.531 2.531 0 0 0 1.75-1 2.839 2.839 0 0 0 .75-2 5.884 5.884 0 0 0-.5-2 7.78 7.78 0 0 0-1.5-1zm-1.5-4.5a2.274 2.274 0 0 0 2-1 2.839 2.839 0 0 0 .75-2 2.27 2.27 0 0 0-.75-1.75 2.7 2.7 0 0 0-1.75-.75H21.5v5.5h7z"/></svg>