<svg xmlns="http://www.w3.org/2000/svg" viewBox="0 0 50 50"><defs><style>.cls-1{fill:#4464aa}</style></defs><path id="Path_2530" data-name="Path 2530" class="cls-1" d="M35.2 10.2a25 25 0 1 0 25 25 24.985 24.985 0 0 0-25-25zm-.691 8.857a.822.822 0 0 1 1.382 0l9.485 14.7-10.05 6.972-10.239-7.037zM46 35.64L35.954 51.28a.788.788 0 0 1-.691.377.722.722 0 0 1-.691-.377l-10.05-15.64a.677.677 0 0 1-.126-.5l10.553 7.286a.677.677 0 0 0 .5.126 1.478 1.478 0 0 0 .5-.126l10.3-7.1c-.182.062-.182.188-.249.314z" transform="translate(-10.2 -10.2)"/></svg>