<svg xmlns="http://www.w3.org/2000/svg" viewBox="5184 1148 69.493 70"><defs><style>.cls-1{opacity:.9}.cls-2{fill:#fff}</style></defs><g id="chat_копія" data-name="chat копія" class="cls-1" transform="translate(5182.148 1148)"><g id="Group_857" data-name="Group 857" transform="translate(1.852)"><path id="Path_643" data-name="Path 643" class="cls-2" d="M63.808 32.348H20.4a7.546 7.546 0 0 1-7.537-7.537v-2.155l-9.223-3.8a2.9 2.9 0 0 1 0-5.357l9.223-3.8V7.537A7.546 7.546 0 0 1 20.4 0h43.4a7.546 7.546 0 0 1 7.537 7.537v17.274a7.546 7.546 0 0 1-7.529 7.537zM8.374 16.174l7.449 3.072a2.139 2.139 0 0 1 1.324 1.978v3.587a3.262 3.262 0 0 0 3.253 3.258h43.4a3.262 3.262 0 0 0 3.258-3.258V7.537A3.262 3.262 0 0 0 63.8 4.279H20.4a3.262 3.262 0 0 0-3.258 3.258v3.587a2.139 2.139 0 0 1-1.319 1.976z" transform="translate(-1.852)"/><path id="Path_644" data-name="Path 644" class="cls-2" d="M52.793 307.745h-4.075a2.139 2.139 0 1 1 0-4.279h4.075a3.262 3.262 0 0 0 3.258-3.258v-3.587a2.139 2.139 0 0 1 1.324-1.978l7.449-3.072-7.449-3.071a2.14 2.14 0 0 1-1.324-1.978v-3.587a3.262 3.262 0 0 0-3.258-3.258H9.389a3.262 3.262 0 0 0-3.258 3.258v17.273a3.262 3.262 0 0 0 3.258 3.258h29.487a2.14 2.14 0 1 1 0 4.279H9.389a7.546 7.546 0 0 1-7.537-7.537v-17.274a7.546 7.546 0 0 1 7.537-7.534h43.4a7.546 7.546 0 0 1 7.537 7.537v2.155l9.223 3.8a2.9 2.9 0 0 1 0 5.357l-9.223 3.8v2.155a7.546 7.546 0 0 1-7.533 7.541z" transform="translate(-1.852 -237.745)"/></g></g></svg>