<svg xmlns="http://www.w3.org/2000/svg" viewBox="5460 1148 70 69.909"><defs><style>.cls-1{opacity:.9}.cls-2{fill:#fff}.cls-3{fill:#ff0081}</style></defs><g id="puzzle" class="cls-1" transform="translate(5460 1147.667)"><path id="Path_650" data-name="Path 650" class="cls-2" d="M157.537 163.33h-11.461a2.155 2.155 0 1 1 0-4.31h11.461a1.817 1.817 0 0 0 1.815-1.815v-8.855a16.223 16.223 0 0 1-2.083.146 12.75 12.75 0 0 1 0-25.5 16.225 16.225 0 0 1 2.083.146v-8.855a1.817 1.817 0 0 0-1.815-1.815H114.62a1.817 1.817 0 0 0-1.815 1.815v2.19a2.155 2.155 0 1 1-4.31 0v-2.19a6.132 6.132 0 0 1 6.125-6.125h42.917a6.131 6.131 0 0 1 6.125 6.125v11.461a2.155 2.155 0 0 1-2.678 2.091 15.908 15.908 0 0 0-3.715-.533 8.44 8.44 0 0 0 0 16.881 15.92 15.92 0 0 0 3.715-.533 2.155 2.155 0 0 1 2.678 2.09v11.461a6.132 6.132 0 0 1-6.125 6.125zm-31.457 0h-11.46a6.131 6.131 0 0 1-6.125-6.125v-13.616a2.155 2.155 0 0 1 4.31 0V157.2a1.817 1.817 0 0 0 1.815 1.815h8.855a16.227 16.227 0 0 1-.146-2.083 12.765 12.765 0 0 1 12.75-12.75 2.155 2.155 0 1 1 0 4.31 8.45 8.45 0 0 0-8.44 8.44 15.911 15.911 0 0 0 .533 3.715 2.155 2.155 0 0 1-2.091 2.678z" transform="translate(-93.662 -93.088)"/><circle id="Ellipse_208" data-name="Ellipse 208" class="cls-3" cx="10.667" cy="10.667" r="10.667" transform="translate(31.767 2.488)"/><path id="Path_651" data-name="Path 651" class="cls-2" d="M229.419 25.976a12.821 12.821 0 1 1 12.821-12.822 12.836 12.836 0 0 1-12.821 12.822zm0-21.333a8.512 8.512 0 1 0 8.512 8.512 8.521 8.521 0 0 0-8.512-8.512z" transform="translate(-186.984)"/><circle id="Ellipse_209" data-name="Ellipse 209" class="cls-3" cx="10.667" cy="10.667" r="10.667" transform="translate(2.155 31.744)"/><path id="Path_652" data-name="Path 652" class="cls-2" d="M12.821 239.972a12.821 12.821 0 1 1 12.822-12.822 12.836 12.836 0 0 1-12.822 12.822zm0-21.333a8.512 8.512 0 1 0 8.512 8.512 8.521 8.521 0 0 0-8.512-8.512z" transform="translate(0 -184.739)"/></g></svg>