<svg xmlns="http://www.w3.org/2000/svg" viewBox="5055 1148 51.373 70"><defs><style>.cls-1{opacity:.9}.cls-2{fill:#fff}</style></defs><g id="price-tag" class="cls-1" transform="translate(4986.879 1148)"><g id="Group_856" data-name="Group 856" transform="translate(81.467 27.772)"><path id="Path_638" data-name="Path 638" class="cls-2" d="M281.125 278.37c-3.082 0-4.779 1.546-4.779 4.354v4.024c0 2.808 1.7 4.354 4.779 4.354 3.037 0 4.779-1.587 4.779-4.354v-4.024c-.004-2.767-1.742-4.354-4.779-4.354zm-.86 4.354c0-.606.233-.832.86-.832.737 0 .888.332.888.832v4.024c0 .5-.151.832-.888.832-.627 0-.86-.225-.86-.832z" transform="translate(-261.224 -268.084)"/><path id="Path_639" data-name="Path 639" class="cls-2" d="M216.579 203.133a1.781 1.781 0 0 0-1.666 1.006l-9.944 20.426a1.782 1.782 0 0 0-.2.775 2.1 2.1 0 0 0 2.115 2.03 1.923 1.923 0 0 0 1.75-1.005l9.972-20.426a1.759 1.759 0 0 0 .169-.775 2.154 2.154 0 0 0-2.196-2.031z" transform="translate(-199.435 -203.133)"/><path id="Path_640" data-name="Path 640" class="cls-2" d="M170.517 211.631c-3.082 0-4.779 1.546-4.779 4.354v4.024c0 2.808 1.7 4.354 4.779 4.354 3.037 0 4.779-1.587 4.779-4.354v-4.024c.004-2.767-1.742-4.354-4.779-4.354zm-.86 4.354c0-.606.233-.832.86-.832.737 0 .888.332.888.832v4.024c0 .5-.151.832-.888.832-.627 0-.86-.225-.86-.832z" transform="translate(-165.738 -210.469)"/></g><path id="Path_641" data-name="Path 641" class="cls-2" d="M117.5 0H70.118a2 2 0 0 0-2 2v66a2 2 0 0 0 2 2h1.8a2 2 0 0 0 1.467-.642l4.627-5.01 4.628 5.01a2 2 0 0 0 2.935-2.71l-6.095-6.6a2 2 0 0 0-2.935 0l-4.432 4.8V20.719H115.5v44.128l-4.432-4.8a2 2 0 0 0-2.935 0l-5.5 5.956h-1.855l-5.5-5.956a2 2 0 0 0-2.935 2.71l6.095 6.6A2 2 0 0 0 99.9 70h3.6a2 2 0 0 0 1.467-.642l4.628-5.01 4.627 5.01A2 2 0 0 0 115.7 70h1.8a2 2 0 0 0 2-2V2a2 2 0 0 0-2-2zM72.116 16.724V3.995H115.5v12.73H72.116z"/></g></svg>