<svg xmlns="http://www.w3.org/2000/svg" viewBox="4770 1148 70 69.466"><defs><style>.cls-1{fill:#fff}</style></defs><g id="pie-chart" transform="translate(4770 1146.043)"><path id="Path_649" data-name="Path 649" class="cls-1" d="M47.265 1.957a22.129 22.129 0 0 0-13.573 4.627 23.755 23.755 0 0 0-9.162 18.773c0 .3.006.6.017.895 0 .1.011.2.016.294.01.2.02.4.034.6v.066q-.267.142-.53.291l-.067.042q-.256.147-.508.3l-.184.114q-.2.123-.393.249l-.195.128q-.2.132-.393.268l-.165.115q-.551.39-1.077.812l-.145.119q-.191.156-.379.316l-.163.141q-.185.16-.366.324l-.143.129q-.232.214-.459.434l-.029.028q-.246.24-.484.488l-.1.109q-.182.191-.36.386l-.135.15q-.166.185-.328.375l-.123.144q-.192.227-.377.458l-.052.064q-.216.271-.423.548l-.069.095q-.167.225-.329.454l-.112.16q-.142.205-.28.413l-.108.164q-.152.233-.3.469l-.066.106q-.181.3-.353.6l-.043.078q-.145.256-.285.516a14.72 14.72 0 0 0-.092.175q-.114.218-.224.439l-.093.189q-.114.233-.222.47l-.07.151q-.142.314-.275.632l-.02.051q-.119.288-.231.58l-.073.194q-.084.225-.164.453l-.075.218q-.078.23-.151.462a6 6 0 0 0-.062.2q-.1.326-.193.656A19.238 19.238 0 0 1 4.3 25.357c0-10.532 8.27-19.1 18.435-19.1a2.15 2.15 0 1 0 0-4.3C10.2 1.957 0 12.454 0 25.357a23.414 23.414 0 0 0 13.768 21.508 22.035 22.035 0 0 0 8.967 1.892q.439 0 .876-.018c.1 0 .19-.011.285-.015.2-.01.391-.021.586-.036.112-.009.224-.02.335-.03.177-.017.354-.034.531-.054a21.042 21.042 0 0 0 .862-.119l.353-.058q.254-.044.506-.094l.344-.07c.173-.037.344-.077.516-.118l.324-.078c.185-.047.369-.1.553-.151l.276-.078c.241-.072.481-.149.719-.229l.1-.032q.409-.139.812-.3c.074-.029.147-.06.221-.09.193-.077.385-.155.576-.237.1-.041.191-.086.287-.129.167-.075.334-.151.5-.23.1-.049.2-.1.306-.151.157-.078.314-.158.47-.24q.155-.082.31-.167.229-.126.457-.257.153-.088.3-.178c.153-.092.3-.186.456-.282.1-.061.193-.121.288-.183l.116-.07.115.073c.1.062.192.122.288.183.151.1.3.19.456.282l.3.178q.227.131.457.257l.31.167a20.76 20.76 0 0 0 .776.391c.166.079.332.155.5.23.1.043.191.087.287.129.191.082.383.16.576.237.074.029.147.061.221.09q.4.155.812.3l.1.032q.358.12.719.229l.276.078c.184.052.368.1.553.151.107.027.216.053.324.078.172.041.343.081.516.118l.344.07q.252.05.506.094a19.974 19.974 0 0 0 .864.132l.351.045c.177.021.353.038.531.054.112.01.223.022.335.03.195.015.39.026.586.036.1 0 .19.012.285.015.291.011.583.018.876.018.237 0 .472 0 .708-.012l.2-.008q.268-.011.534-.028l.194-.012q.35-.025.7-.061l.085-.01q.308-.034.614-.076l.206-.029q.267-.039.534-.085l.172-.029q.342-.062.682-.134l.135-.03q.277-.061.552-.129l.208-.053q.267-.069.533-.145l.113-.031v.138c0 10.532-8.27 19.1-18.435 19.1a18.367 18.367 0 0 1-17.135-12.048 2.15 2.15 0 0 0-4.015 1.541 23.269 23.269 0 0 0 8.2 10.64A22.162 22.162 0 0 0 35 71.423c12.536 0 22.735-10.5 22.735-23.4a24.349 24.349 0 0 0-.244-3.429q-.052-.361-.114-.719l-.044-.234c-.03-.16-.059-.32-.092-.48-.019-.093-.041-.185-.061-.277a10.75 10.75 0 0 0-.1-.431c-.023-.1-.049-.194-.073-.291-.035-.137-.069-.274-.106-.411l-.084-.3-.116-.4c-.03-.1-.062-.2-.094-.3a17.57 17.57 0 0 0-.127-.388l-.1-.3q-.068-.193-.139-.384c-.036-.1-.073-.194-.11-.291q-.074-.191-.152-.381c-.039-.095-.077-.189-.117-.283q-.081-.191-.166-.38c-.041-.092-.081-.184-.123-.275a26.59 26.59 0 0 0-.507-1.035l-.126-.243c-.074-.139-.151-.276-.227-.413-.039-.07-.077-.141-.117-.21-.092-.161-.187-.32-.283-.478l-.08-.134q-.374-.61-.784-1.2l-.115-.16-.3-.415-.152-.2c-.093-.122-.185-.243-.28-.363-.057-.072-.115-.142-.173-.213a18.197 18.197 0 0 0-.463-.552 13.198 13.198 0 0 0-.478-.535q-.14-.153-.283-.3L51 31.419q-.144-.147-.289-.291-.107-.106-.215-.21-.147-.142-.3-.282l-.221-.2a8.3 8.3 0 0 0-.308-.273 12.99 12.99 0 0 1-.225-.2 26.51 26.51 0 0 0-.32-.266l-.226-.185a21.7 21.7 0 0 0-.337-.263c-.074-.057-.148-.115-.223-.171a18.993 18.993 0 0 0-.366-.267l-.207-.15-.437-.3-.149-.1q-.3-.195-.6-.38l-.128-.076c-.16-.1-.32-.192-.482-.284-.077-.044-.155-.085-.232-.128-.112-.062-.223-.125-.337-.186v-.066c.015-.2.025-.4.035-.6 0-.1.012-.194.015-.291q.017-.448.017-.9 0-.323-.009-.645c0-.07-.005-.14-.008-.211a20.99 20.99 0 0 0-.019-.434c0-.083-.01-.165-.015-.247q-.013-.2-.029-.4-.01-.128-.022-.255c-.012-.131-.026-.261-.04-.392l-.028-.252c-.016-.136-.035-.272-.053-.408l-.031-.228a23.473 23.473 0 0 0-.079-.5l-.022-.133q-.055-.312-.117-.622l-.041-.193c-.03-.143-.061-.286-.094-.428l-.058-.243a22.923 22.923 0 0 0-.161-.631q-.049-.182-.1-.363l-.074-.254-.113-.368-.076-.239a24.4 24.4 0 0 0-.139-.408c-.022-.064-.043-.128-.066-.191q-.1-.293-.217-.583c-.021-.055-.044-.109-.066-.164-.056-.141-.112-.282-.17-.421a7.52 7.52 0 0 0-.1-.228c-.051-.118-.1-.235-.154-.352-.036-.081-.074-.161-.111-.242q-.077-.168-.157-.334l-.117-.241q-.083-.167-.168-.333l-.119-.231a24.46 24.46 0 0 0-.193-.356l-.108-.2q-.149-.266-.305-.528l-.054-.089q-.139-.23-.282-.457c-.04-.064-.082-.127-.123-.19a24.645 24.645 0 0 0-.222-.339l-.142-.208q-.108-.157-.219-.313L40.9 11.3q-.113-.155-.228-.308l-.151-.2c-.083-.108-.168-.215-.253-.322-.046-.058-.091-.116-.138-.173q-.169-.207-.343-.411l-.06-.072q-.206-.24-.419-.473l-.119-.128a9.852 9.852 0 0 0-.315-.335l-.155-.159c-.062-.063-.123-.128-.186-.19a17.784 17.784 0 0 1 8.735-2.274c10.165 0 18.435 8.568 18.435 19.1a19.521 19.521 0 0 1-2.973 10.4 2.15 2.15 0 1 0 3.641 2.288A23.812 23.812 0 0 0 70 25.357c0-12.903-10.2-23.4-22.735-23.4zM28.838 24.811c0-.06 0-.119.007-.179 0-.122.009-.243.015-.364 0-.072.009-.143.014-.214.007-.109.014-.218.023-.326l.02-.226q.014-.157.031-.313l.026-.229q.018-.154.039-.306.015-.115.032-.229.022-.152.047-.3c.012-.075.024-.151.038-.226l.057-.307c.014-.072.027-.145.042-.217.022-.107.045-.215.069-.321l.043-.2c.029-.126.06-.251.092-.376l.034-.138q.066-.254.138-.5l.046-.152c.035-.117.07-.235.107-.351.021-.067.044-.133.066-.2l.1-.3.076-.212.1-.281.084-.216.109-.272.091-.217a15.312 15.312 0 0 1 .216-.48c.04-.088.082-.176.124-.264l.1-.208c.044-.09.09-.179.135-.268l.1-.2c.051-.1.1-.191.155-.287l.094-.171q.124-.221.254-.439l.058-.095q.108-.178.219-.354c.036-.057.074-.113.111-.17l.175-.266.128-.185.17-.243.138-.189.173-.232.144-.187q.089-.114.179-.226l.15-.184.186-.222a8.343 8.343 0 0 1 .354-.401c.051-.056.1-.113.152-.168.072-.078.145-.155.219-.232.048-.05.1-.1.143-.15.09-.092.182-.183.274-.274l.1-.1q.182-.176.369-.348.187.172.369.348l.1.1c.092.091.184.181.274.274.048.05.1.1.143.15.073.077.147.154.219.232l.152.168.2.222.154.179q.094.11.186.222l.15.184q.091.113.179.226l.144.187c.059.077.116.155.173.232l.138.189c.058.08.114.162.17.243l.128.185.175.266c.037.057.075.113.111.17.075.117.147.235.219.354l.058.095q.13.218.254.439l.094.171c.052.1.1.19.155.287.034.065.068.132.1.2.046.089.091.178.135.268l.1.208.124.264c.033.071.065.143.1.214q.059.132.116.266l.091.217.109.272a597992151452742.9 597992151452742.9 0 0 1 .36 1.009c.022.067.045.133.066.2.037.116.072.234.107.351l.046.152q.073.251.138.5l.034.138c.031.125.063.25.092.376l.043.2.069.321c.015.072.028.145.042.217.02.1.039.2.057.307l.038.226q.025.152.047.3.017.114.032.229.021.153.039.306l.026.229q.017.156.031.313l.02.226c.009.109.016.217.023.326 0 .071.01.142.014.214.006.121.011.243.015.364 0 .06.005.119.007.179q.007.273.008.546v.137l-.108-.029q-.268-.076-.538-.146l-.2-.051q-.278-.069-.557-.13l-.13-.029q-.341-.073-.684-.134l-.169-.029q-.268-.046-.537-.086l-.2-.029q-.308-.042-.618-.076l-.081-.009a22.751 22.751 0 0 0-.7-.061l-.192-.012q-.267-.017-.535-.028l-.2-.008c-.235-.007-.471-.012-.708-.012s-.472 0-.708.012l-.2.008q-.268.011-.535.028l-.192.012a23.31 23.31 0 0 0-.7.061l-.081.009q-.31.034-.618.076l-.2.029q-.269.04-.537.086l-.169.029q-.343.062-.684.134l-.13.029q-.279.061-.557.13l-.2.051q-.27.069-.538.146l-.108.029v-.137a2.709 2.709 0 0 1-.026-.546zm16.529 7.423l.058.042q.31.221.609.456l.138.108q.317.252.624.517l.09.08q.275.242.54.494l.114.108q.291.282.571.575l.1.109q.25.267.49.544l.084.1q.264.309.514.63l.1.135c.153.2.3.4.449.607l.05.069c.157.223.307.45.455.68l.1.154c.145.23.286.462.421.7l.006.011c.136.239.266.483.392.728l.086.168c.123.245.243.492.355.742l.027.062c.1.234.2.471.3.71l.07.175q.148.38.281.768l.041.125q.115.345.217.7l.051.174q.111.393.205.791c0 .017.008.035.012.052l-.1.034c-.078.026-.157.049-.235.074q-.291.091-.584.172l-.268.072q-.308.079-.618.147c-.069.015-.137.032-.206.046q-.409.085-.822.151c-.061.01-.122.017-.183.026q-.327.048-.656.085l-.275.027q-.3.028-.6.047l-.258.015a16.849 16.849 0 0 1-1.524.008l-.205-.01q-.24-.012-.479-.029l-.22-.017q-.26-.023-.519-.053l-.15-.017q-.33-.041-.657-.095l-.159-.028q-.251-.043-.5-.093l-.213-.045q-.234-.05-.467-.107l-.189-.058a17.75 17.75 0 0 1-.639-.175l-.034-.011q-.3-.089-.6-.19l-.193-.067q-.224-.078-.446-.162l-.2-.077-.492-.2-.125-.053q-.3-.133-.6-.278l-.152-.076q-.225-.112-.448-.229l-.195-.105-.165-.093.08-.082q.191-.192.378-.387l.142-.15q.2-.208.385-.421l.081-.09q.228-.258.447-.523l.1-.126q.171-.209.338-.422l.118-.152q.191-.249.375-.5l.037-.05q.2-.281.4-.568l.094-.14q.15-.225.295-.454l.1-.153q.365-.587.7-1.2l.084-.157q.127-.239.249-.481l.078-.155q.154-.312.3-.629l.011-.026c.091-.2.179-.4.265-.606l.073-.177.2-.5.061-.158q.123-.325.237-.654l.03-.09q.1-.285.187-.573l.059-.192q.079-.263.153-.527l.031-.108.074.047c.217.146.443.297.664.454zM31.1 42.381q-.223.118-.448.229l-.152.076q-.3.145-.6.278l-.125.053-.492.2-.2.077q-.222.084-.446.162l-.193.067q-.3.1-.6.19l-.034.011c-.212.063-.425.12-.639.175l-.191.046q-.233.057-.467.107l-.213.048q-.249.05-.5.093l-.159.028q-.327.054-.657.095l-.15.017q-.259.03-.519.053l-.22.017q-.239.018-.479.029l-.205.01a18.9 18.9 0 0 1-.675.014c-.284 0-.567-.009-.849-.022-.086 0-.172-.01-.258-.015q-.3-.018-.6-.047l-.275-.027q-.329-.037-.656-.085c-.061-.009-.122-.016-.183-.026q-.413-.066-.822-.151c-.069-.014-.138-.031-.206-.046q-.31-.068-.618-.147L18 43.818q-.293-.081-.584-.172l-.235-.073-.1-.034c0-.017.008-.035.012-.052q.095-.4.205-.791l.051-.174q.1-.35.217-.7l.041-.125q.132-.387.281-.768a9.11 9.11 0 0 1 .07-.175c.1-.239.195-.476.3-.71l.027-.062c.113-.25.232-.5.355-.742l.086-.168c.126-.245.256-.489.392-.728l.006-.011c.135-.236.276-.469.421-.7l.1-.154c.147-.23.3-.457.455-.68l.05-.069q.218-.308.449-.607l.1-.135q.251-.32.514-.63l.084-.1q.24-.277.49-.544l.1-.109q.279-.294.571-.575l.114-.108q.265-.252.54-.494l.09-.08q.306-.265.624-.517l.138-.108q.3-.234.609-.456l.058-.042a18.1 18.1 0 0 1 .675-.455l.074-.047.031.108q.074.265.153.527l.059.192q.09.288.187.573l.03.09q.113.329.237.654l.061.158.2.5.073.177c.086.2.173.405.265.606l.011.026.3.629.078.155q.122.242.249.481l.084.157q.33.608.7 1.2l.1.153q.145.229.295.454l.094.14q.194.287.4.568l.037.05q.184.253.375.5l.118.152q.167.213.338.422l.1.126q.22.265.447.523l.081.09q.19.213.385.421l.142.15q.186.2.378.387l.08.082-.165.093zm-1.424-12.645q.292-.092.587-.173l.264-.071c.208-.054.416-.1.625-.149.067-.015.133-.031.2-.045q.41-.086.825-.152l.181-.026q.328-.049.659-.086l.273-.027q.3-.029.6-.047c.086-.005.171-.011.257-.015.282-.013.565-.022.849-.022s.567.009.849.022c.086 0 .172.01.257.015q.3.018.6.047l.273.027c.22.024.44.053.659.086.06.009.121.016.181.026q.414.066.825.152c.067.014.133.03.2.045q.314.069.625.149l.264.071q.295.081.587.173c.078.024.156.047.233.073l.1.034-.023.109-.065.261q-.073.291-.154.578a14.33 14.33 0 0 1-.08.276q-.093.31-.2.616c-.022.064-.041.129-.064.193q-.138.4-.292.783c-.026.065-.054.129-.081.194a18.3 18.3 0 0 1-.25.584l-.117.255q-.127.272-.262.539l-.114.225c-.129.246-.261.49-.4.729l-.039.065q-.192.328-.4.648c-.047.074-.1.147-.145.22q-.163.247-.334.49c-.052.074-.1.148-.157.221q-.2.276-.412.544c-.032.041-.063.083-.1.124q-.26.326-.535.64l-.149.166q-.208.233-.424.46-.1.1-.192.2-.218.221-.443.436c-.056.053-.11.107-.167.16l-.067.06-.067-.06c-.057-.053-.111-.106-.167-.16q-.225-.215-.443-.436-.1-.1-.192-.2-.216-.226-.424-.46l-.149-.166q-.274-.314-.535-.64c-.032-.041-.063-.083-.1-.124q-.211-.269-.412-.544l-.157-.221q-.171-.242-.334-.49c-.048-.073-.1-.146-.145-.22q-.2-.32-.4-.648l-.039-.065a19.78 19.78 0 0 1-.4-.729c-.039-.074-.076-.15-.114-.225q-.135-.267-.262-.539c-.04-.085-.079-.169-.117-.255q-.13-.29-.25-.584c-.027-.065-.055-.129-.081-.194q-.154-.388-.292-.783l-.064-.193-.2-.616-.08-.276q-.082-.287-.154-.578c-.022-.087-.045-.173-.065-.261-.009-.036-.015-.072-.023-.109l.1-.034c.103-.026.183-.049.259-.073z"/></g></svg>