<svg xmlns="http://www.w3.org/2000/svg" viewBox="5322 1148 70 70"><defs><style>.cls-1{opacity:.9}.cls-2{fill:#fff}.cls-3{fill:#ff0081}</style></defs><g id="organization" class="cls-1" transform="translate(5322 1148)"><g id="Group_854" data-name="Group 854" transform="translate(2.195 2.195)"><path id="Path_622" data-name="Path 622" class="cls-2" d="M48.858 81.663a32.805 32.805 0 1 1 23.2-56 2.327 2.327 0 0 1-3.291 3.291 28.152 28.152 0 1 0 8.215 18.6 2.327 2.327 0 0 1 4.648-.215 32.8 32.8 0 0 1-32.77 34.332z" transform="translate(-16.053 -16.052)"/><path id="Path_623" data-name="Path 623" class="cls-2" d="M126.776 129.1a2.32 2.32 0 0 1-1.645-.681l-43.1-43.1a2.327 2.327 0 0 1 3.291-3.291l43.1 43.1a2.326 2.326 0 0 1-1.645 3.972z" transform="translate(-72.419 -72.42)"/><path id="Path_624" data-name="Path 624" class="cls-2" d="M83.675 249.6a2.327 2.327 0 0 1-1.645-3.972l24.019-24.019a2.327 2.327 0 0 1 3.291 3.291l-24.02 24.02a2.32 2.32 0 0 1-1.645.68z" transform="translate(-72.421 -192.921)"/></g><path id="Path_625" data-name="Path 625" class="cls-3" d="M37.038 30.484l-6.555 6.555a4.047 4.047 0 0 1-5.724 0l-6.555-6.555a4.047 4.047 0 0 1 0-5.724l6.555-6.555a4.047 4.047 0 0 1 5.724 0l6.555 6.555a4.047 4.047 0 0 1 0 5.724z" transform="translate(-14.693 -14.693)"/><path id="Path_626" data-name="Path 626" class="cls-2" d="M12.929 25.857a6.333 6.333 0 0 1-4.508-1.867l-6.554-6.554a6.374 6.374 0 0 1 0-9.014l6.554-6.555a6.374 6.374 0 0 1 9.014 0l6.555 6.554a6.374 6.374 0 0 1 0 9.014l-6.554 6.555a6.331 6.331 0 0 1-4.507 1.867zm0-21.2a1.708 1.708 0 0 0-1.217.5l-6.555 6.555a1.722 1.722 0 0 0 0 2.433l6.555 6.555a1.72 1.72 0 0 0 2.433 0l6.555-6.555a1.722 1.722 0 0 0 0-2.433l-6.555-6.555a1.71 1.71 0 0 0-1.216-.504z"/><path id="Path_627" data-name="Path 627" class="cls-3" d="M203.816 203.818a9.307 9.307 0 0 1-13.162 0 9.306 9.306 0 0 1 0-13.161 9.306 9.306 0 0 1 13.161 0 9.306 9.306 0 0 1 .001 13.161z" transform="translate(-162.235 -162.237)"/><path id="Path_628" data-name="Path 628" class="cls-2" d="M182.581 194.178a11.633 11.633 0 1 1 8.226-3.407 11.557 11.557 0 0 1-8.226 3.407zm0-18.613a6.98 6.98 0 1 0 4.935 2.044 6.933 6.933 0 0 0-4.935-2.044z" transform="translate(-147.581 -147.545)"/><path id="Path_629" data-name="Path 629" class="cls-3" d="M359.911 353.355l-6.555 6.555a4.047 4.047 0 0 1-5.724 0l-6.555-6.555a4.047 4.047 0 0 1 0-5.724l6.555-6.555a4.047 4.047 0 0 1 5.724 0l6.555 6.555a4.047 4.047 0 0 1 0 5.724z" transform="translate(-293.423 -293.421)"/><path id="Path_630" data-name="Path 630" class="cls-2" d="M335.8 348.731a6.333 6.333 0 0 1-4.507-1.867l-6.555-6.555a6.374 6.374 0 0 1 0-9.014l6.555-6.555a6.374 6.374 0 0 1 9.014 0l6.555 6.555a6.374 6.374 0 0 1 0 9.014l-6.555 6.555a6.332 6.332 0 0 1-4.507 1.867zm0-21.2a1.708 1.708 0 0 0-1.217.5l-6.555 6.555a1.722 1.722 0 0 0 0 2.433l6.555 6.555a1.72 1.72 0 0 0 2.433 0l6.555-6.555a1.722 1.722 0 0 0 0-2.433l-6.555-6.555a1.708 1.708 0 0 0-1.216-.504z" transform="translate(-278.731 -278.731)"/><path id="Path_631" data-name="Path 631" class="cls-3" d="M347.631 37.038l-6.555-6.555a4.048 4.048 0 0 1 0-5.724l6.555-6.555a4.047 4.047 0 0 1 5.724 0l6.555 6.555a4.047 4.047 0 0 1 0 5.724l-6.555 6.555a4.047 4.047 0 0 1-5.724 0z" transform="translate(-293.421 -14.693)"/><path id="Path_632" data-name="Path 632" class="cls-2" d="M335.8 25.857a6.333 6.333 0 0 1-4.5-1.867l-6.555-6.555a6.374 6.374 0 0 1 0-9.014l6.555-6.554a6.374 6.374 0 0 1 9.014 0l6.555 6.555a6.374 6.374 0 0 1 0 9.014l-6.559 6.554a6.332 6.332 0 0 1-4.51 1.867zm0-21.2a1.708 1.708 0 0 0-1.217.5l-6.555 6.555a1.723 1.723 0 0 0 0 2.433l6.555 6.555a1.72 1.72 0 0 0 2.433 0l6.555-6.555a1.722 1.722 0 0 0 0-2.433l-6.555-6.555a1.709 1.709 0 0 0-1.216-.504z" transform="translate(-278.731)"/><path id="Path_633" data-name="Path 633" class="cls-3" d="M24.76 359.911l-6.555-6.555a4.047 4.047 0 0 1 0-5.724l6.555-6.555a4.047 4.047 0 0 1 5.724 0l6.555 6.555a4.047 4.047 0 0 1 0 5.724l-6.555 6.555a4.047 4.047 0 0 1-5.724 0z" transform="translate(-14.693 -293.423)"/><path id="Path_634" data-name="Path 634" class="cls-2" d="M12.929 348.731a6.333 6.333 0 0 1-4.507-1.867l-6.555-6.554a6.374 6.374 0 0 1 0-9.014l6.555-6.555a6.374 6.374 0 0 1 9.014 0l6.554 6.559a6.374 6.374 0 0 1 0 9.014l-6.555 6.555a6.331 6.331 0 0 1-4.506 1.862zm0-21.2a1.708 1.708 0 0 0-1.217.5l-6.555 6.555a1.722 1.722 0 0 0 0 2.433l6.555 6.555a1.72 1.72 0 0 0 2.433 0l6.555-6.555a1.722 1.722 0 0 0 0-2.433l-6.555-6.555a1.707 1.707 0 0 0-1.216-.504z" transform="translate(0 -278.731)"/></g></svg>