<svg xmlns="http://www.w3.org/2000/svg" viewBox="4910 1148 65.911 70"><defs><style>.cls-1{opacity:.9}.cls-2{fill:#fff}</style></defs><g id="time" class="cls-1" transform="translate(4895.048 1148)"><g id="Group_855" data-name="Group 855" transform="translate(14.952)"><path id="Path_636" data-name="Path 636" class="cls-2" d="M51.8 70h-7.78a5.156 5.156 0 0 1-5.113-4.36l-.552-3.452a28.967 28.967 0 0 1-9.206-5.322l-3.272 1.251a5.176 5.176 0 0 1-6.333-2.248l-3.89-6.737a5.155 5.155 0 0 1 1.219-6.608l2.715-2.206a29.01 29.01 0 0 1 0-10.635l-2.716-2.206a5.156 5.156 0 0 1-1.219-6.608l3.89-6.738a5.176 5.176 0 0 1 6.333-2.248l3.272 1.251a28.988 28.988 0 0 1 9.205-5.321L38.9 4.36A5.156 5.156 0 0 1 44.018 0H51.8a5.155 5.155 0 0 1 5.11 4.359l.553 3.454a28.986 28.986 0 0 1 9.2 5.321l3.273-1.251a5.176 5.176 0 0 1 6.333 2.248l3.889 6.737a5.156 5.156 0 0 1-1.219 6.608l-2.715 2.206a29.037 29.037 0 0 1 0 10.636l2.715 2.206a5.156 5.156 0 0 1 1.219 6.608l-3.889 6.737a5.193 5.193 0 0 1-4.485 2.589 5.157 5.157 0 0 1-1.847-.342l-3.273-1.251a28.976 28.976 0 0 1-9.2 5.322l-.553 3.453A5.156 5.156 0 0 1 51.8 70zM29.573 52.563a2 2 0 0 1 1.369.541 24.894 24.894 0 0 0 9.772 5.65 2 2 0 0 1 1.4 1.6l.745 4.657a1.174 1.174 0 0 0 1.159.989H51.8a1.174 1.174 0 0 0 1.164-.993l.746-4.657a2 2 0 0 1 1.4-1.6 24.9 24.9 0 0 0 9.771-5.65 2 2 0 0 1 2.082-.409l4.413 1.687a1.177 1.177 0 0 0 1.442-.512l3.882-6.734a1.174 1.174 0 0 0-.278-1.5l-3.661-2.974a2 2 0 0 1-.686-2.006 25 25 0 0 0 0-11.294 2 2 0 0 1 .686-2.006l3.661-2.974a1.174 1.174 0 0 0 .278-1.5l-3.889-6.737a1.184 1.184 0 0 0-1.022-.59 1.172 1.172 0 0 0-.42.078l-4.413 1.687a2 2 0 0 1-2.081-.409 24.911 24.911 0 0 0-9.775-5.659 2 2 0 0 1-1.4-1.6l-.746-4.659A1.174 1.174 0 0 0 51.8 4h-7.78a1.174 1.174 0 0 0-1.164.993l-.747 4.657a2 2 0 0 1-1.4 1.6 24.907 24.907 0 0 0-9.768 5.65 2 2 0 0 1-2.081.409l-4.412-1.687a1.177 1.177 0 0 0-1.442.512l-3.89 6.738a1.174 1.174 0 0 0 .278 1.5l3.661 2.974a2 2 0 0 1 .687 2 25.007 25.007 0 0 0 0 11.3 2 2 0 0 1-.687 2l-3.661 2.974a1.174 1.174 0 0 0-.278 1.5l3.89 6.737a1.177 1.177 0 0 0 1.442.512l4.412-1.687a2.013 2.013 0 0 1 .713-.119zm18.335 4.562A22.125 22.125 0 1 1 70.032 35a22.149 22.149 0 0 1-22.124 22.125zm0-40.25A18.126 18.126 0 1 0 66.033 35a18.146 18.146 0 0 0-18.125-18.125z" transform="translate(-14.952)"/><path id="Path_637" data-name="Path 637" class="cls-2" d="M230.541 181.682h-13.087a2 2 0 0 1-2-2v-15.165a2 2 0 0 1 2-2h6.884a2 2 0 0 1 2 2v8.283a2 2 0 1 1-4 0v-6.281h-2.885v11.166h11.087a2 2 0 0 1 0 4z" transform="translate(-188.042 -140.299)"/></g></g></svg>