<svg xmlns="http://www.w3.org/2000/svg" viewBox="4606 -708 203.401 25"><defs><style>.cls-1{fill:#fff}.cls-2{fill:#ff0081}</style></defs><g id="Group_1047" data-name="Group 1047" transform="translate(4606 -708)"><path id="Path_2548" data-name="Path 2548" class="cls-1" d="M158.492 5.8h-15.7a10.662 10.662 0 0 0-.187 1.912 10.746 10.746 0 0 0 .187 1.949h5.585v18.515a6.9 6.9 0 0 0 1.237.112c.412.037.787.037 1.124.037s.712 0 1.087-.037l1.124-.112V9.661h5.547a11.084 11.084 0 0 0 .187-1.949 8.27 8.27 0 0 0-.191-1.912z" transform="translate(-89.152 -3.626)"/><path id="Path_2549" data-name="Path 2549" class="cls-1" d="M197.692 26.672a7.159 7.159 0 0 0-1.424-2.7 7 7 0 0 0-2.436-1.8 8.959 8.959 0 0 0-6.822 0 6.856 6.856 0 0 0-2.4 1.8 7.159 7.159 0 0 0-1.424 2.7 10.719 10.719 0 0 0-.487 3.336 10.32 10.32 0 0 0 .487 3.3 7.892 7.892 0 0 0 1.424 2.661 6.348 6.348 0 0 0 2.4 1.762 9.448 9.448 0 0 0 6.822 0 6.483 6.483 0 0 0 2.436-1.762 7.286 7.286 0 0 0 1.424-2.661 11.5 11.5 0 0 0 .45-3.3 10.719 10.719 0 0 0-.45-3.336zm-4.76 7.046a2.694 2.694 0 0 1-2.511 1.274 2.747 2.747 0 0 1-2.474-1.274 7.223 7.223 0 0 1-.75-3.711 7.63 7.63 0 0 1 .75-3.711 2.672 2.672 0 0 1 2.474-1.274 2.768 2.768 0 0 1 2.511 1.274 7.223 7.223 0 0 1 .75 3.711 7.629 7.629 0 0 1-.75 3.712z" transform="translate(-114.222 -13.442)"/><path id="Path_2550" data-name="Path 2550" class="cls-1" d="M242.133 18.58l4.123-7.421a15.257 15.257 0 0 0-2.286-.187 18.318 18.318 0 0 0-2.474.187l-3.973 7.646 4.685 8.433a17.043 17.043 0 0 0 2.286.187 19.278 19.278 0 0 0 2.474-.187zM234.674 4.3a13.791 13.791 0 0 0-2.174.187v22.752a13.791 13.791 0 0 0 2.174.187 14.271 14.271 0 0 0 2.211-.187V4.487a14.271 14.271 0 0 0-2.211-.187z" transform="translate(-145.356 -2.688)"/><path id="Path_2551" data-name="Path 2551" class="cls-1" d="M288.093 26.248a6.78 6.78 0 0 0-1.387-2.436 6.363 6.363 0 0 0-2.211-1.612 7.5 7.5 0 0 0-3-.6 7.97 7.97 0 0 0-3.373.675 7.368 7.368 0 0 0-2.436 1.8 7.937 7.937 0 0 0-1.5 2.7 10.72 10.72 0 0 0-.487 3.336 10.556 10.556 0 0 0 .487 3.336 6.971 6.971 0 0 0 1.5 2.624 6.549 6.549 0 0 0 2.624 1.724 10.6 10.6 0 0 0 3.823.637 14.835 14.835 0 0 0 5.472-.937 7.536 7.536 0 0 0-.3-1.874 6.242 6.242 0 0 0-.6-1.5 9.614 9.614 0 0 1-2.1.562 10.883 10.883 0 0 1-2.174.187 5.549 5.549 0 0 1-3.111-.825 3.368 3.368 0 0 1-1.312-2.7h10.307q.056-.337.112-.9c.037-.375.037-.787.037-1.162a8.059 8.059 0 0 0-.371-3.035zm-9.97 2.061a4.129 4.129 0 0 1 .975-2.474 3.086 3.086 0 0 1 2.361-.862 2.607 2.607 0 0 1 2.136.937 4.008 4.008 0 0 1 .825 2.4h-6.3z" transform="translate(-171.114 -13.504)"/><path id="Path_2552" data-name="Path 2552" class="cls-1" d="M335.556 23.1a5.3 5.3 0 0 0-4.123-1.5 5.152 5.152 0 0 0-1.574.225 5.729 5.729 0 0 0-1.274.6 7.446 7.446 0 0 0-1.012.825 8.2 8.2 0 0 0-.75.937c-.038-.15-.038-.337-.075-.525-.037-.225-.075-.412-.112-.637a3.922 3.922 0 0 0-.15-.637 1.25 1.25 0 0 0-.187-.45 7.754 7.754 0 0 0-.825-.15 7.23 7.23 0 0 0-.937-.037 8.152 8.152 0 0 0-.975.037 6.918 6.918 0 0 0-.862.15v16.079a13.141 13.141 0 0 0 4.423 0v-8.4a6.918 6.918 0 0 1 .262-2.136 3.822 3.822 0 0 1 .75-1.274 2.349 2.349 0 0 1 1.012-.6 3.792 3.792 0 0 1 1.087-.15 1.885 1.885 0 0 1 1.8.9 5.335 5.335 0 0 1 .525 2.586v9.07a13.141 13.141 0 0 0 4.423 0V27.784a6.98 6.98 0 0 0-1.426-4.684z" transform="translate(-201.748 -13.504)"/><path id="Path_2553" data-name="Path 2553" class="cls-1" d="M384.842 15.682a16.047 16.047 0 0 0-2.249.187v7.871c-.225.037-.487.075-.75.112a6.783 6.783 0 0 1-.937.075 5.881 5.881 0 0 1-4.685-1.874c-1.049-1.274-1.574-3.148-1.574-5.7s.525-4.46 1.612-5.772a5.563 5.563 0 0 1 4.573-1.949 10.457 10.457 0 0 1 1.987.15 12.448 12.448 0 0 1 1.912.525 17.54 17.54 0 0 0 .675-1.8 7.613 7.613 0 0 0 .375-1.837 11.434 11.434 0 0 0-2.7-.787 21.514 21.514 0 0 0-2.774-.187 11.323 11.323 0 0 0-4.5.862A9.053 9.053 0 0 0 372.474 8a10.988 10.988 0 0 0-2.061 3.673 14.15 14.15 0 0 0-.712 4.61 15.232 15.232 0 0 0 .675 4.61 9.833 9.833 0 0 0 2.061 3.673 9.363 9.363 0 0 0 3.411 2.4 12.6 12.6 0 0 0 4.8.862c.862 0 1.874-.075 3.073-.187a16.988 16.988 0 0 0 3.373-.787V15.869a15.169 15.169 0 0 0-2.252-.187z" transform="translate(-231.132 -2.938)"/><path id="Path_2554" data-name="Path 2554" class="cls-1" d="M438.893 26.248a6.78 6.78 0 0 0-1.387-2.436 6.363 6.363 0 0 0-2.211-1.612 7.5 7.5 0 0 0-3-.6 7.97 7.97 0 0 0-3.373.675 7.368 7.368 0 0 0-2.436 1.8 7.937 7.937 0 0 0-1.5 2.7 10.719 10.719 0 0 0-.487 3.336 10.556 10.556 0 0 0 .487 3.336 6.971 6.971 0 0 0 1.5 2.624 6.55 6.55 0 0 0 2.624 1.724 10.6 10.6 0 0 0 3.823.637 14.835 14.835 0 0 0 5.472-.937 7.539 7.539 0 0 0-.3-1.874 6.24 6.24 0 0 0-.6-1.5 9.613 9.613 0 0 1-2.1.562 10.883 10.883 0 0 1-2.174.187 5.549 5.549 0 0 1-3.111-.825 3.368 3.368 0 0 1-1.312-2.7h10.307q.056-.337.112-.9c.038-.375.038-.787.038-1.162a7.371 7.371 0 0 0-.372-3.035zm-9.97 2.061a4.129 4.129 0 0 1 .974-2.474 3.006 3.006 0 0 1 2.361-.862 2.607 2.607 0 0 1 2.136.937 3.779 3.779 0 0 1 .825 2.4h-6.3z" transform="translate(-265.392 -13.504)"/><path id="Path_2555" data-name="Path 2555" class="cls-1" d="M482.369 23.237a7.429 7.429 0 0 0-5.06-1.537 15.652 15.652 0 0 0-2.549.225 18.21 18.21 0 0 0-2.736.675 5.831 5.831 0 0 0 .225 1.724 12.26 12.26 0 0 0 .637 1.537 10.691 10.691 0 0 1 3.561-.637c.525 0 .975.037 1.424.075a3.1 3.1 0 0 1 1.087.375 1.757 1.757 0 0 1 .675.712 2.707 2.707 0 0 1 .262 1.2v.375a18.618 18.618 0 0 0-1.986-.075 11.1 11.1 0 0 0-2.474.262 7.38 7.38 0 0 0-2.249.862 4.847 4.847 0 0 0-1.649 1.612 4.708 4.708 0 0 0-.637 2.511 5.54 5.54 0 0 0 .525 2.511 4.511 4.511 0 0 0 1.462 1.687 6 6 0 0 0 2.286.937 13.752 13.752 0 0 0 2.924.3 19.929 19.929 0 0 0 3.523-.3 20.2 20.2 0 0 0 2.624-.675v-9.409c-.076-2.249-.675-3.935-1.875-4.947zM479.9 34.856c-.225.037-.487.075-.825.15a7.89 7.89 0 0 1-.937.075 8.482 8.482 0 0 1-.937-.037 2.875 2.875 0 0 1-1.012-.262 1.967 1.967 0 0 1-.825-.637 2.02 2.02 0 0 1-.337-1.237 1.9 1.9 0 0 1 .9-1.762 4.455 4.455 0 0 1 2.4-.562c.225 0 .487.037.787.037.3.037.562.075.825.112v4.123z" transform="translate(-294.401 -13.567)"/><path id="Path_2556" data-name="Path 2556" class="cls-1" d="M526.408 22.925c-.037-.262-.037-.525-.075-.712a2.124 2.124 0 0 0-.6-.075c-.262 0-.525-.037-.712-.037a3.966 3.966 0 0 0-2.474.75 8.14 8.14 0 0 0-1.687 1.724 2.941 2.941 0 0 0-.075-.525c-.037-.225-.075-.45-.112-.637a3.922 3.922 0 0 0-.15-.637 1.25 1.25 0 0 0-.187-.45 7.5 7.5 0 0 0-.9-.15 7.278 7.278 0 0 0-.9-.075 7.528 7.528 0 0 0-.937.037c-.262.037-.562.075-.9.15V38.4a6.015 6.015 0 0 0 1.124.112c.375 0 .712.037 1.087.037a10.535 10.535 0 0 0 1.09-.032l1.124-.112v-7.647a7.075 7.075 0 0 1 .375-2.624 3.374 3.374 0 0 1 .975-1.387 3.036 3.036 0 0 1 1.237-.562 7.147 7.147 0 0 1 1.2-.112h.525a4.215 4.215 0 0 1 .75.075 10.1 10.1 0 0 0 .187-1.2c.037-.412.037-.787.037-1.162a3.316 3.316 0 0 0-.002-.861z" transform="translate(-323.034 -13.817)"/><path id="Path_2557" data-name="Path 2557" class="cls-2" d="M52.916 35.572a10.4 10.4 0 0 1 3.073 7.421v1.687a.4.4 0 0 1-.375.375h-3.373a.4.4 0 0 1-.375-.375v-1.612H39.123v1.612a.4.4 0 0 1-.375.375h-3.373A.4.4 0 0 1 35 44.68v-1.462A10.632 10.632 0 0 1 45.42 32.5a10.421 10.421 0 0 1 7.496 3.072z" transform="translate(-21.882 -20.317)"/><path id="Path_2558" data-name="Path 2558" class="cls-1" d="M47.226 19.865v4.5a.4.4 0 0 1-.375.375h-3.373a.4.4 0 0 1-.375-.375V20.99h-3.3a2.047 2.047 0 0 1-1.987-1.5 15.188 15.188 0 0 0-1.237-3.036 2.043 2.043 0 0 1 .337-2.436l2.324-2.324-3.708-3.71-2.324 2.324a1.923 1.923 0 0 1-1.462.6 1.816 1.816 0 0 1-.975-.262 15.188 15.188 0 0 0-3.036-1.237 2.08 2.08 0 0 1-1.5-1.987v-3.3H20.99v3.3a2.047 2.047 0 0 1-1.5 1.987 15.188 15.188 0 0 0-3.036 1.237 2.252 2.252 0 0 1-1.012.262 2.069 2.069 0 0 1-1.462-.6l-2.323-2.324-3.711 3.71 2.324 2.324a2.043 2.043 0 0 1 .337 2.436A14.337 14.337 0 0 0 9.37 19.49a2.048 2.048 0 0 1-.75 1.087 1.86 1.86 0 0 1-1.2.412h-3.3v3.373a.4.4 0 0 1-.375.375H.375A.4.4 0 0 1 0 24.363V19.94a3.132 3.132 0 0 1 .562-1.84A3.072 3.072 0 0 1 3 16.867h2.922a7.605 7.605 0 0 1 .412-.975l-2.061-2.061a3.044 3.044 0 0 1 0-4.235L9.6 4.273a2.856 2.856 0 0 1 2.1-.9 3.1 3.1 0 0 1 2.136.862L15.892 6.3c.337-.15.637-.3.975-.412V3a3.007 3.007 0 0 1 3-3h7.5a3.007 3.007 0 0 1 3 3v2.922a7.6 7.6 0 0 1 .975.412l2.1-2.061a2.985 2.985 0 0 1 2.1-.9 2.948 2.948 0 0 1 2.1.862l5.322 5.322a3.009 3.009 0 0 1 0 4.235l-2.061 2.061c.15.337.3.637.412.975h2.924a3.064 3.064 0 0 1 2.987 3.037z"/></g></svg>