<svg id="Layer_1" xmlns="http://www.w3.org/2000/svg" viewBox="0 0 678.2 120"><style>.st0{display:none;fill:#3b3735}.st1{fill:#e41513}.st1,.st2{fill-rule:evenodd;clip-rule:evenodd}.st2,.st3{fill:#dcdbdb}</style><path class="st0" d="M1220-1.1h1200V900H1220z"/><path class="st1" d="M49.5 28.4c12.1 0 21.9 9.8 21.9 21.9 0 12.1-9.8 21.9-21.9 21.9-12.1 0-21.9-9.8-21.9-21.9 0-12.1 9.8-21.9 21.9-21.9"/><path class="st2" d="M101.5 49.2C101.5 22.6 78 1 51.4 1 24.9 1 1 21 1 49.2c0 31.6 25.3 50 50 50.5h-.2 50.8V48.6c-.1 0-.1.6-.1.6zm-79.7 1c0-15.3 12.4-27.7 27.7-27.7 15.3 0 27.7 12.4 27.7 27.7 0 15.3-12.4 27.7-27.7 27.7-15.3 0-27.7-12.4-27.7-27.7z"/><path class="st3" d="M149 28.5h13.8l27.4 71.3h-14.1l-5.6-14.7h-29.1l-5.8 14.7h-14.1L149 28.5zm6.9 18.9l-9.6 24.5h19.1l-9.5-24.5zm56.4-.4v5.8c2.4-2.4 5-4.2 7.8-5.4 2.8-1.2 5.7-1.8 8.9-1.8 6.9 0 12.7 2.6 17.5 7.8 4.8 5.2 7.2 11.9 7.2 20 0 7.8-2.5 14.4-7.5 19.7-5 5.3-10.9 7.9-17.7 7.9-3 0-5.9-.5-8.5-1.6-2.6-1.1-5.2-2.8-7.8-5.3V119h-13.1V47h13.2zm13.9 10.9c-4.2 0-7.6 1.4-10.4 4.3-2.7 2.8-4.1 6.6-4.1 11.1 0 4.7 1.4 8.5 4.1 11.4 2.7 2.9 6.2 4.3 10.4 4.3 4 0 7.4-1.5 10.2-4.4 2.8-2.9 4.1-6.7 4.1-11.2 0-4.5-1.4-8.2-4.1-11.1-2.6-3-6-4.4-10.2-4.4zM277.8 47v5.8c2.4-2.4 5-4.2 7.8-5.4 2.8-1.2 5.7-1.8 8.9-1.8 6.9 0 12.7 2.6 17.5 7.8 4.8 5.2 7.2 11.9 7.2 20 0 7.8-2.5 14.4-7.5 19.7-5 5.3-10.9 7.9-17.7 7.9-3 0-5.9-.5-8.5-1.6-2.6-1.1-5.2-2.8-7.8-5.3V119h-13.1V47h13.2zm13.9 10.9c-4.2 0-7.6 1.4-10.4 4.3-2.7 2.8-4.1 6.6-4.1 11.1 0 4.7 1.4 8.5 4.1 11.4 2.7 2.9 6.2 4.3 10.4 4.3 4 0 7.4-1.5 10.2-4.4 2.8-2.9 4.1-6.7 4.1-11.2 0-4.5-1.4-8.2-4.1-11.1-2.6-3-6-4.4-10.2-4.4zm37.1-31.2H342v73.1h-13.2V26.7zm30.4-1.4c2.3 0 4.3.8 6 2.5 1.7 1.7 2.5 3.7 2.5 6.1 0 2.4-.8 4.4-2.5 6-1.6 1.7-3.6 2.5-5.9 2.5-2.4 0-4.4-.8-6-2.5-1.7-1.7-2.5-3.8-2.5-6.2 0-2.3.8-4.3 2.5-6 1.6-1.5 3.5-2.4 5.9-2.4zM352.5 47h13.2v52.7h-13.2V47zm76.9 10.7l-11 6.1c-2.1-2.2-4.1-3.7-6.1-4.5-2-.8-4.4-1.3-7.1-1.3-4.9 0-9 1.5-12 4.4-3.1 3-4.6 6.7-4.6 11.3 0 4.5 1.5 8.1 4.4 11 2.9 2.8 6.8 4.3 11.6 4.3 5.9 0 10.5-2 13.8-6.1l10.4 7.1c-5.7 7.4-13.6 11-23.9 11-9.3 0-16.5-2.7-21.8-8.2-5.3-5.5-7.9-11.9-7.9-19.3 0-5.1 1.3-9.8 3.8-14.1 2.6-4.3 6.1-7.7 10.7-10.1 4.6-2.5 9.7-3.7 15.3-3.7 5.2 0 9.9 1 14.1 3.1 4.2 2.2 7.6 5.2 10.3 9zM476.7 47h13.2v52.7h-13.2v-5.6c-2.6 2.5-5.2 4.2-7.8 5.3-2.6 1.1-5.4 1.6-8.4 1.6-6.8 0-12.7-2.6-17.7-7.9-5-5.3-7.5-11.8-7.5-19.7 0-8.1 2.4-14.8 7.2-20 4.8-5.2 10.6-7.8 17.5-7.8 3.2 0 6.1.6 8.9 1.8 2.8 1.2 5.3 3 7.7 5.4V47zm-13.9 10.9c-4.1 0-7.5 1.4-10.2 4.3-2.7 2.9-4.1 6.6-4.1 11.1 0 4.6 1.4 8.3 4.1 11.2 2.8 2.9 6.1 4.4 10.2 4.4 4.2 0 7.6-1.4 10.3-4.3 2.7-2.9 4.1-6.7 4.1-11.4 0-4.6-1.4-8.3-4.1-11.1-2.7-2.8-6.1-4.2-10.3-4.2zm42.1-30.3h13.2V47h7.8v11.4h-7.8v41.3h-13.2V58.4h-6.8V47h6.8V27.6zM533 47h13.4v25.4c0 4.9.3 8.4 1 10.3.7 1.9 1.8 3.4 3.3 4.5 1.5 1.1 3.4 1.6 5.6 1.6 2.2 0 4.1-.5 5.6-1.6 1.5-1 2.7-2.6 3.4-4.6.6-1.5.8-4.8.8-9.7V47h13.2v22.3c0 9.2-.7 15.5-2.2 18.9-1.8 4.1-4.4 7.3-7.8 9.5-3.5 2.2-7.8 3.3-13.2 3.3-5.8 0-10.5-1.3-14-3.9-3.6-2.6-6.1-6.2-7.5-10.8-1-3.2-1.6-9-1.6-17.4V47zm56.5 0h11.3v6.6c1.2-2.6 2.9-4.6 4.9-6 2-1.4 4.3-2 6.7-2 1.7 0 3.5.5 5.4 1.4l-4.1 11.4c-1.6-.8-2.8-1.2-3.8-1.2-2 0-3.8 1.3-5.2 3.8-1.4 2.5-2.1 7.5-2.1 14.8v23.9h-13.1V47zm87.6 30.2h-42.5c.6 3.7 2.3 6.7 4.9 8.9 2.7 2.2 6.1 3.3 10.2 3.3 4.9 0 9.2-1.7 12.7-5.2l11.1 5.2c-2.8 3.9-6.1 6.9-10 8.7-3.9 1.9-8.5 2.8-13.8 2.8-8.3 0-15-2.6-20.2-7.8-5.2-5.2-7.8-11.7-7.8-19.6 0-8 2.6-14.7 7.8-20 5.2-5.3 11.7-8 19.5-8 8.3 0 15.1 2.7 20.3 8 5.2 5.3 7.8 12.3 7.8 21.1v2.6zm-13.2-10.4c-.9-2.9-2.6-5.3-5.2-7.2-2.6-1.8-5.6-2.8-9-2.8-3.7 0-6.9 1-9.7 3.1-1.7 1.3-3.4 3.6-4.9 6.8h28.8z"/></svg>