<svg xmlns="http://www.w3.org/2000/svg" xmlns:xlink="http://www.w3.org/1999/xlink" viewBox="4606 474 1088 659.824"><defs><style>.cls-1{fill:#e1e2e4}.cls-2{fill:#32373d}.cls-3{fill:#15181c}.cls-13,.cls-4{fill:none}.cls-4{opacity:.95}.cls-5{fill:#000003}.cls-6{fill:url(#linear-gradient)}.cls-7{opacity:.55;fill:url(#radial-gradient)}.cls-8{fill:url(#linear-gradient-2)}.cls-9{fill:url(#linear-gradient-3)}.cls-10{fill:url(#linear-gradient-4)}.cls-11{fill:url(#linear-gradient-5)}.cls-12{fill:url(#linear-gradient-6)}.cls-14{fill:#262b33}.cls-15{fill:url(#linear-gradient-7)}.cls-16{fill:#12233d;stroke:#131314;stroke-linecap:round;stroke-linejoin:bevel;stroke-miterlimit:10;stroke-width:.41px}.cls-17{fill:url(#linear-gradient-8)}</style><linearGradient id="linear-gradient" x1=".5" y1=".044" x2=".5" y2=".986" gradientUnits="objectBoundingBox"><stop offset="0" stop-color="#95969a"/><stop offset=".13" stop-color="#828386"/><stop offset=".728" stop-color="#2e2e2f"/><stop offset="1" stop-color="#0d0d0d"/></linearGradient><radialGradient id="radial-gradient" cx="524.125" cy="9.773" r="13051.188" gradientTransform="matrix(.019 0 0 .019 514.389 9.592)" gradientUnits="userSpaceOnUse"><stop offset=".012" stop-color="#f6f9ff"/><stop offset=".315" stop-color="#f2f4fb" stop-opacity=".69"/><stop offset=".988" stop-color="#eeeff7" stop-opacity="0"/></radialGradient><linearGradient id="linear-gradient-2" x1=".003" y1=".502" x2="1.004" y2=".502" gradientUnits="objectBoundingBox"><stop offset="0" stop-color="#828387"/><stop offset=".182" stop-color="#616163"/><stop offset="1" stop-color="#696969" stop-opacity="0"/></linearGradient><linearGradient id="linear-gradient-3" y1=".502" x2=".996" y2=".502" gradientUnits="objectBoundingBox"><stop offset="0" stop-color="#828387" stop-opacity="0"/><stop offset=".018" stop-color="#7e7f83" stop-opacity=".051"/><stop offset=".12" stop-color="#6e6e71" stop-opacity=".341"/><stop offset=".228" stop-color="#646466" stop-opacity=".647"/><stop offset=".352" stop-color="#616163"/><stop offset=".891" stop-color="#696969" stop-opacity=".129"/><stop offset="1" stop-color="#696969" stop-opacity="0"/></linearGradient><linearGradient id="linear-gradient-4" x1="3.683" y1=".502" x2="4.684" y2=".502" xlink:href="#linear-gradient-2"/><linearGradient id="linear-gradient-5" x1="1.812" y1=".502" x2="2.808" y2=".502" xlink:href="#linear-gradient-3"/><linearGradient id="linear-gradient-6" y1=".502" x2="1.001" y2=".502" gradientUnits="objectBoundingBox"><stop offset="0" stop-color="#565759"/><stop offset=".042" stop-color="#656669" stop-opacity=".757"/><stop offset=".1" stop-color="#747579" stop-opacity=".431"/><stop offset=".146" stop-color="#797a7e" stop-opacity=".169"/><stop offset=".509" stop-color="#616163" stop-opacity=".361"/><stop offset=".693" stop-color="#737375" stop-opacity=".286"/><stop offset=".788" stop-color="#7e7e80" stop-opacity=".251"/><stop offset=".846" stop-color="#7b7b7d" stop-opacity=".392"/><stop offset=".895" stop-color="#717172" stop-opacity=".514"/><stop offset=".94" stop-color="#606061" stop-opacity=".624"/><stop offset=".983" stop-color="#484849" stop-opacity=".729"/><stop offset="1" stop-color="#3d3d3d" stop-opacity=".769"/></linearGradient><linearGradient id="linear-gradient-7" x1=".001" y1=".507" x2=".993" y2=".507" gradientUnits="objectBoundingBox"><stop offset="0" stop-color="#181b21"/><stop offset="1" stop-color="#191d23"/></linearGradient><linearGradient id="linear-gradient-8" x1=".353" y1="-6.538" x2=".353" y2="-5.595" gradientUnits="objectBoundingBox"><stop offset="0" stop-color="#95969a" stop-opacity="0"/><stop offset=".13" stop-color="#828386" stop-opacity=".039"/><stop offset=".728" stop-color="#2e2e2f" stop-opacity=".227"/><stop offset="1" stop-color="#0d0d0d" stop-opacity=".31"/></linearGradient></defs><g id="Group_964" data-name="Group 964" transform="translate(704 -1111)"><g id="Group_963" data-name="Group 963" transform="translate(3902 1585)"><g id="Group_953" data-name="Group 953" transform="translate(113.072)"><path id="Path_763" data-name="Path 763" class="cls-1" d="M933.747 563.23a14.654 14.654 0 0 1-14.715 14.715H91.587c-9.513.3-11.891-11.148-11.891-19.174L79.1 24.73C78.8 15.366 90.7.8 100.8.8h810.057c14.269 0 23.484 16.052 23.484 24.227z" transform="translate(-74.605 .389)"/><path id="Path_764" data-name="Path 764" class="cls-2" d="M929.555 558.836c-2.229 7.878-6.54 15.9-14.566 15.9l-817.784.3c-8.026 0-13.377-7.58-15.309-15.607L81.3 25.984C81 16.769 92.747 2.5 102.705 2.5h803.812c14.269 0 23.336 15.755 23.336 23.93z" transform="translate(-73.535 1.216)"/><path id="Path_765" data-name="Path 765" class="cls-3" d="M81.882 369.1s-2.973 28.092 11.593 27.646l76.546-.3v-26.16z" transform="translate(-73.371 179.507)"/><path id="Path_766" data-name="Path 766" class="cls-3" d="M680.443 369.1s3.121 28.092-11.445 27.646l-76.4-.3v-26.16z" transform="translate(175.132 179.507)"/><g id="Group_952" data-name="Group 952"><path id="Rectangle_1258" data-name="Rectangle 1258" class="cls-4" d="M0 0h865.049v573.727H0z"/><g id="Group_951" data-name="Group 951" transform="translate(7.762 3.716)"><path id="Path_767" data-name="Path 767" class="cls-2" d="M929.555 546.054c0 7.878-6.54 13.972-14.566 13.972H96.462c-8.026 0-14.566-6.094-14.566-13.972L81.3 25.39C81 16.323 92.747 2.5 102.705 2.5h803.812c14.269 0 23.336 15.309 23.336 23.187z" transform="translate(-81.296 -2.5)"/></g></g><path id="Path_768" data-name="Path 768" class="cls-5" d="M927.385 543.435c0 7.878-6.54 13.823-14.566 13.823H97.414c-8.026 0-14.566-5.945-14.566-13.823L82.4 26.041C82.1 17.123 93.847 3.3 103.805 3.3h800.839c14.12 0 23.187 15.161 23.187 23.038z" transform="translate(-73 1.605)"/><path id="Rectangle_1259" data-name="Rectangle 1259" class="cls-2" transform="translate(33.184 37.902)" d="M0 0h798.015v499.112H0z"/></g><g id="Group_957" data-name="Group 957" transform="translate(20.511 571.051)"><path id="Path_769" data-name="Path 769" class="cls-6" d="M13.8 397.3s14.269 11 41.172 12.783l970.579.3s25.565-3.567 36.267-13.08z" transform="translate(-13.8 -377.829)"/><path id="Rectangle_1260" data-name="Rectangle 1260" class="cls-1" d="M0 0h1048.166v19.471H0z"/><path id="Rectangle_1261" data-name="Rectangle 1261" class="cls-7" d="M0 0h1048.166v19.471H0z"/><g id="Group_954" data-name="Group 954"><path id="Rectangle_1262" data-name="Rectangle 1262" class="cls-8" d="M0 0h12.188v19.471H0z"/><path id="Rectangle_1263" data-name="Rectangle 1263" class="cls-9" transform="translate(10.999)" d="M0 0h67.183v19.471H0z"/></g><g id="Group_955" data-name="Group 955" transform="translate(970.133)"><path id="Rectangle_1264" data-name="Rectangle 1264" class="cls-10" transform="translate(65.845)" d="M0 0h12.188v19.471H0z"/><path id="Rectangle_1265" data-name="Rectangle 1265" class="cls-11" d="M0 0h67.183v19.471H0z"/></g><g id="Group_956" data-name="Group 956" transform="translate(450.212)"><path id="Path_770" data-name="Path 770" class="cls-12" d="M316.7 385.389a10.943 10.943 0 0 0 10.85 11h125.893a10.943 10.943 0 0 0 10.85-11V384.2H316.849c0 .446-.149.892-.149 1.189z" transform="translate(-316.7 -384.2)"/></g></g><g id="Group_958" data-name="Group 958" transform="translate(0 549.835)"><path id="Rectangle_1266" data-name="Rectangle 1266" class="cls-13" d="M0 0h1086.514v109.989H0z"/></g><g id="Group_959" data-name="Group 959" transform="translate(541.176 17.242)"><ellipse id="Ellipse_213" data-name="Ellipse 213" class="cls-14" cx="4.756" cy="4.756" rx="4.756" ry="4.756"/><ellipse id="Ellipse_214" data-name="Ellipse 214" class="cls-15" cx="4.31" cy="4.31" rx="4.31" ry="4.31" transform="translate(.446 .446)"/><path id="Path_771" data-name="Path 771" class="cls-16" d="M369.865 15.432a1.932 1.932 0 1 1-1.932-1.932 2.077 2.077 0 0 1 1.932 1.932z" transform="translate(-363.176 -10.676)"/></g><g id="Group_962" data-name="Group 962" transform="translate(2.973 549.835)"><g id="Group_960" data-name="Group 960" transform="translate(17.687 55.848)"><path id="Path_772" data-name="Path 772" class="cls-17" d="M1061.918 420.58s-14.269-11-41.172-12.783l-970.579-.3S24.6 411.067 13.9 420.58z" transform="translate(-13.9 -407.5)"/></g><g id="Group_961" data-name="Group 961"><path id="Rectangle_1267" data-name="Rectangle 1267" class="cls-13" d="M0 0h1085.027v109.989H0z"/></g></g><path id="Rectangle_1268" data-name="Rectangle 1268" class="cls-5" transform="translate(140.162 32.997)" d="M0 0h807.825v4.905H0z"/><path id="Rectangle_1269" data-name="Rectangle 1269" class="cls-5" transform="translate(136.446 26.903)" d="M0 0h9.81v509.963H0z"/><path id="Rectangle_1270" data-name="Rectangle 1270" class="cls-5" transform="translate(941.744 34.186)" d="M0 0h4.905v502.68H0z"/></g></g></svg>