<svg xmlns="http://www.w3.org/2000/svg" viewBox="4606.084 1772.129 719.916 443.728"><defs><style>.cls-1,.cls-2{fill:none}.cls-1{clip-rule:evenodd}.cls-3{clip-path:url(#clip-path)}.cls-4{clip-path:url(#clip-path-2)}.cls-5{clip-path:url(#clip-path-3)}.cls-6{clip-path:url(#clip-path-4)}.cls-7{fill:#252525}.cls-8{clip-path:url(#clip-path-5)}.cls-9{fill:#0f0f0f}.cls-10{clip-path:url(#clip-path-7)}.cls-11{fill:#34c748}.cls-12{clip-path:url(#clip-path-9)}.cls-13{fill:#fdbb40}.cls-14{clip-path:url(#clip-path-11)}.cls-15{fill:#fc605b}</style><clipPath id="clip-path"><path id="Path_794" data-name="Path 794" class="cls-1" d="M6.545-339h706.826a6.545 6.545 0 0 1 6.545 6.545V98.183a6.545 6.545 0 0 1-6.545 6.545H6.545A6.545 6.545 0 0 1 0 98.183v-430.638A6.545 6.545 0 0 1 6.545-339z" transform="translate(0 339)"/></clipPath><clipPath id="clip-path-2"><path id="Path_793" data-name="Path 793" class="cls-2" d="M-90 381.363H957.15V-404H-90z" transform="translate(90 404)"/></clipPath><clipPath id="clip-path-3"><path id="Rectangle_1308" data-name="Rectangle 1308" class="cls-2" d="M0 0h733.005v456.819H0z"/></clipPath><clipPath id="clip-path-4"><path id="Path_780" data-name="Path 780" class="cls-2" d="M0 104.73h719.916V-339H0z" transform="translate(0 339)"/></clipPath><clipPath id="clip-path-5"><path id="Path_783" data-name="Path 783" class="cls-1" d="M0-339h719.916v39.268H0z" transform="translate(0 339)"/></clipPath><clipPath id="clip-path-7"><path id="Path_786" data-name="Path 786" class="cls-1" d="M41.236-317.529a5.236 5.236 0 0 0 5.236-5.236A5.236 5.236 0 0 0 41.236-328 5.236 5.236 0 0 0 36-322.764a5.236 5.236 0 0 0 5.236 5.235z" transform="translate(-36 328)"/></clipPath><clipPath id="clip-path-9"><path id="Path_789" data-name="Path 789" class="cls-1" d="M28.236-317.529a5.236 5.236 0 0 0 5.236-5.236A5.236 5.236 0 0 0 28.236-328 5.236 5.236 0 0 0 23-322.764a5.236 5.236 0 0 0 5.236 5.235z" transform="translate(-23 328)"/></clipPath><clipPath id="clip-path-11"><path id="Path_792" data-name="Path 792" class="cls-1" d="M15.236-317.529a5.236 5.236 0 0 0 5.236-5.236A5.236 5.236 0 0 0 15.236-328 5.236 5.236 0 0 0 10-322.764a5.236 5.236 0 0 0 5.236 5.235z" transform="translate(-10 328)"/></clipPath></defs><g id="Group_1015" data-name="Group 1015" transform="translate(4430 -736)"><g id="Group_1014" data-name="Group 1014" transform="translate(176.084 2508.129)"><g id="Group_1010" data-name="Group 1010" class="cls-3"><g id="Group_1009" data-name="Group 1009" class="cls-4" transform="translate(-117.804 -85.081)"><g id="Group_1008" data-name="Group 1008" class="cls-5" transform="translate(111.26 78.536)"><g id="Group_999" data-name="Group 999" class="cls-6" transform="translate(6.545 6.545)"><path id="Path_779" data-name="Path 779" class="cls-7" d="M-5 112.817h733.005V-344H-5z" transform="translate(-1.545 337.455)"/></g><g id="Group_1001" data-name="Group 1001" class="cls-8" transform="translate(6.545 6.545)"><g id="Group_1000" data-name="Group 1000" class="cls-6"><path id="Path_781" data-name="Path 781" class="cls-9" d="M-5-291.643h733.005V-344H-5z" transform="translate(-1.545 337.455)"/></g></g><g id="Group_1003" data-name="Group 1003" class="cls-10" transform="translate(53.666 20.943)"><g id="Group_1002" data-name="Group 1002" class="cls-6" transform="translate(-47.122 -14.398)"><path id="Path_784" data-name="Path 784" class="cls-11" d="M31-309.439h23.561V-333H31z" transform="translate(9.577 340.854)"/></g></g><g id="Group_1005" data-name="Group 1005" class="cls-12" transform="translate(36.65 20.943)"><g id="Group_1004" data-name="Group 1004" class="cls-6" transform="translate(-30.106 -14.398)"><path id="Path_787" data-name="Path 787" class="cls-13" d="M18-309.439h23.561V-333H18z" transform="translate(5.561 340.854)"/></g></g><g id="Group_1007" data-name="Group 1007" class="cls-14" transform="translate(19.634 20.943)"><g id="Group_1006" data-name="Group 1006" class="cls-6" transform="translate(-13.089 -14.398)"><path id="Path_790" data-name="Path 790" class="cls-15" d="M5-309.439h23.561V-333H5z" transform="translate(1.545 340.854)"/></g></g></g></g></g></g></g></svg>